<mxfile host="Electron" modified="2023-12-17T20:48:29.432Z" agent="Mozilla/5.0 (Windows NT 10.0; Win64; x64) AppleWebKit/537.36 (KHTML, like Gecko) draw.io/22.0.3 Chrome/114.0.5735.289 Electron/25.8.4 Safari/537.36" etag="4jWhuNfKbcpQJBaiZst9" version="22.0.3" type="device">
  <diagram name="PÃ¡gina-1" id="m61uAzU7RZr0iizhc8PR">
    <mxGraphModel dx="2261" dy="2013" grid="1" gridSize="10" guides="1" tooltips="1" connect="1" arrows="1" fold="1" page="1" pageScale="1" pageWidth="827" pageHeight="1169" math="0" shadow="0">
      <root>
        <mxCell id="0" />
        <mxCell id="1" parent="0" />
        <mxCell id="axsoGHkXVx0biH-m-Ovt-25" style="rounded=0;orthogonalLoop=1;jettySize=auto;html=1;strokeColor=#DDA15E;fontColor=#FEFAE0;fillColor=#BC6C25;endArrow=none;endFill=0;" edge="1" parent="1" source="axsoGHkXVx0biH-m-Ovt-1" target="axsoGHkXVx0biH-m-Ovt-21">
          <mxGeometry relative="1" as="geometry" />
        </mxCell>
        <mxCell id="axsoGHkXVx0biH-m-Ovt-30" style="edgeStyle=none;shape=connector;rounded=0;orthogonalLoop=1;jettySize=auto;html=1;labelBackgroundColor=default;strokeColor=#DDA15E;align=center;verticalAlign=middle;fontFamily=Helvetica;fontSize=11;fontColor=#FEFAE0;endArrow=none;endFill=0;fillColor=#BC6C25;" edge="1" parent="1" source="axsoGHkXVx0biH-m-Ovt-1" target="axsoGHkXVx0biH-m-Ovt-29">
          <mxGeometry relative="1" as="geometry" />
        </mxCell>
        <mxCell id="axsoGHkXVx0biH-m-Ovt-31" style="edgeStyle=none;shape=connector;rounded=0;orthogonalLoop=1;jettySize=auto;html=1;labelBackgroundColor=default;strokeColor=#DDA15E;align=center;verticalAlign=middle;fontFamily=Helvetica;fontSize=11;fontColor=#FEFAE0;endArrow=none;endFill=0;fillColor=#BC6C25;" edge="1" parent="1" source="axsoGHkXVx0biH-m-Ovt-1" target="axsoGHkXVx0biH-m-Ovt-28">
          <mxGeometry relative="1" as="geometry" />
        </mxCell>
        <mxCell id="axsoGHkXVx0biH-m-Ovt-33" style="edgeStyle=none;shape=connector;rounded=0;orthogonalLoop=1;jettySize=auto;html=1;labelBackgroundColor=default;strokeColor=#DDA15E;align=center;verticalAlign=middle;fontFamily=Helvetica;fontSize=11;fontColor=#FEFAE0;endArrow=none;endFill=0;fillColor=#BC6C25;" edge="1" parent="1" source="axsoGHkXVx0biH-m-Ovt-1" target="axsoGHkXVx0biH-m-Ovt-27">
          <mxGeometry relative="1" as="geometry" />
        </mxCell>
        <mxCell id="axsoGHkXVx0biH-m-Ovt-1" value="PINACAOTECA" style="whiteSpace=wrap;html=1;align=center;labelBackgroundColor=none;fillColor=#BC6C25;strokeColor=#DDA15E;fontColor=#FEFAE0;" vertex="1" parent="1">
          <mxGeometry x="40" y="120" width="100" height="40" as="geometry" />
        </mxCell>
        <mxCell id="axsoGHkXVx0biH-m-Ovt-70" style="edgeStyle=none;shape=connector;rounded=0;orthogonalLoop=1;jettySize=auto;html=1;labelBackgroundColor=default;strokeColor=#DDA15E;align=center;verticalAlign=middle;fontFamily=Helvetica;fontSize=11;fontColor=#FEFAE0;endArrow=none;endFill=0;fillColor=#BC6C25;" edge="1" parent="1" source="axsoGHkXVx0biH-m-Ovt-2" target="axsoGHkXVx0biH-m-Ovt-69">
          <mxGeometry relative="1" as="geometry" />
        </mxCell>
        <mxCell id="axsoGHkXVx0biH-m-Ovt-71" style="edgeStyle=none;shape=connector;rounded=0;orthogonalLoop=1;jettySize=auto;html=1;labelBackgroundColor=default;strokeColor=#DDA15E;align=center;verticalAlign=middle;fontFamily=Helvetica;fontSize=11;fontColor=#FEFAE0;endArrow=none;endFill=0;fillColor=#BC6C25;" edge="1" parent="1" source="axsoGHkXVx0biH-m-Ovt-2" target="axsoGHkXVx0biH-m-Ovt-68">
          <mxGeometry relative="1" as="geometry" />
        </mxCell>
        <mxCell id="axsoGHkXVx0biH-m-Ovt-72" style="edgeStyle=none;shape=connector;rounded=0;orthogonalLoop=1;jettySize=auto;html=1;labelBackgroundColor=default;strokeColor=#DDA15E;align=center;verticalAlign=middle;fontFamily=Helvetica;fontSize=11;fontColor=#FEFAE0;endArrow=none;endFill=0;fillColor=#BC6C25;" edge="1" parent="1" source="axsoGHkXVx0biH-m-Ovt-2" target="axsoGHkXVx0biH-m-Ovt-67">
          <mxGeometry relative="1" as="geometry" />
        </mxCell>
        <mxCell id="axsoGHkXVx0biH-m-Ovt-2" value="ESCUELA" style="whiteSpace=wrap;html=1;align=center;labelBackgroundColor=none;fillColor=#BC6C25;strokeColor=#DDA15E;fontColor=#FEFAE0;" vertex="1" parent="1">
          <mxGeometry x="600" y="120" width="100" height="40" as="geometry" />
        </mxCell>
        <mxCell id="axsoGHkXVx0biH-m-Ovt-10" style="rounded=0;orthogonalLoop=1;jettySize=auto;html=1;endArrow=none;endFill=0;labelBackgroundColor=none;strokeColor=#DDA15E;fontColor=default;" edge="1" parent="1" source="axsoGHkXVx0biH-m-Ovt-3" target="axsoGHkXVx0biH-m-Ovt-9">
          <mxGeometry relative="1" as="geometry" />
        </mxCell>
        <mxCell id="axsoGHkXVx0biH-m-Ovt-95" value="(0,N)" style="edgeLabel;html=1;align=center;verticalAlign=middle;resizable=0;points=[];fontSize=11;fontFamily=Helvetica;fontColor=#FEFAE0;" vertex="1" connectable="0" parent="axsoGHkXVx0biH-m-Ovt-10">
          <mxGeometry x="-0.2286" y="3" relative="1" as="geometry">
            <mxPoint as="offset" />
          </mxGeometry>
        </mxCell>
        <mxCell id="axsoGHkXVx0biH-m-Ovt-12" style="edgeStyle=none;shape=connector;rounded=0;orthogonalLoop=1;jettySize=auto;html=1;labelBackgroundColor=none;strokeColor=#DDA15E;align=center;verticalAlign=middle;fontFamily=Helvetica;fontSize=11;fontColor=default;endArrow=none;endFill=0;" edge="1" parent="1" source="axsoGHkXVx0biH-m-Ovt-3" target="axsoGHkXVx0biH-m-Ovt-7">
          <mxGeometry relative="1" as="geometry" />
        </mxCell>
        <mxCell id="axsoGHkXVx0biH-m-Ovt-93" value="(1,1)" style="edgeLabel;html=1;align=center;verticalAlign=middle;resizable=0;points=[];fontSize=11;fontFamily=Helvetica;fontColor=#FEFAE0;" vertex="1" connectable="0" parent="axsoGHkXVx0biH-m-Ovt-12">
          <mxGeometry x="0.1882" y="3" relative="1" as="geometry">
            <mxPoint as="offset" />
          </mxGeometry>
        </mxCell>
        <mxCell id="axsoGHkXVx0biH-m-Ovt-53" style="edgeStyle=none;shape=connector;rounded=0;orthogonalLoop=1;jettySize=auto;html=1;entryX=0;entryY=0.5;entryDx=0;entryDy=0;labelBackgroundColor=default;strokeColor=#DDA15E;align=center;verticalAlign=middle;fontFamily=Helvetica;fontSize=11;fontColor=#FEFAE0;endArrow=none;endFill=0;fillColor=#BC6C25;exitX=1;exitY=0;exitDx=0;exitDy=0;" edge="1" parent="1" source="axsoGHkXVx0biH-m-Ovt-3" target="axsoGHkXVx0biH-m-Ovt-52">
          <mxGeometry relative="1" as="geometry" />
        </mxCell>
        <mxCell id="axsoGHkXVx0biH-m-Ovt-74" value="Maestro" style="edgeLabel;html=1;align=center;verticalAlign=middle;resizable=0;points=[];fontSize=11;fontFamily=Helvetica;fontColor=#FEFAE0;" vertex="1" connectable="0" parent="axsoGHkXVx0biH-m-Ovt-53">
          <mxGeometry x="-0.6486" y="-2" relative="1" as="geometry">
            <mxPoint as="offset" />
          </mxGeometry>
        </mxCell>
        <mxCell id="axsoGHkXVx0biH-m-Ovt-88" value="(0,1)" style="edgeLabel;html=1;align=center;verticalAlign=middle;resizable=0;points=[];fontSize=11;fontFamily=Helvetica;fontColor=#FEFAE0;" vertex="1" connectable="0" parent="axsoGHkXVx0biH-m-Ovt-53">
          <mxGeometry x="0.5009" relative="1" as="geometry">
            <mxPoint as="offset" />
          </mxGeometry>
        </mxCell>
        <mxCell id="axsoGHkXVx0biH-m-Ovt-54" style="edgeStyle=none;shape=connector;rounded=0;orthogonalLoop=1;jettySize=auto;html=1;exitX=1;exitY=1;exitDx=0;exitDy=0;entryX=0.5;entryY=1;entryDx=0;entryDy=0;labelBackgroundColor=default;strokeColor=#DDA15E;align=center;verticalAlign=middle;fontFamily=Helvetica;fontSize=11;fontColor=#FEFAE0;endArrow=none;endFill=0;fillColor=#BC6C25;" edge="1" parent="1" source="axsoGHkXVx0biH-m-Ovt-3" target="axsoGHkXVx0biH-m-Ovt-52">
          <mxGeometry relative="1" as="geometry" />
        </mxCell>
        <mxCell id="axsoGHkXVx0biH-m-Ovt-75" value="Alumno" style="edgeLabel;html=1;align=center;verticalAlign=middle;resizable=0;points=[];fontSize=11;fontFamily=Helvetica;fontColor=#FEFAE0;" vertex="1" connectable="0" parent="axsoGHkXVx0biH-m-Ovt-54">
          <mxGeometry x="-0.5473" y="-4" relative="1" as="geometry">
            <mxPoint as="offset" />
          </mxGeometry>
        </mxCell>
        <mxCell id="axsoGHkXVx0biH-m-Ovt-61" style="edgeStyle=none;shape=connector;rounded=0;orthogonalLoop=1;jettySize=auto;html=1;labelBackgroundColor=default;strokeColor=#DDA15E;align=center;verticalAlign=middle;fontFamily=Helvetica;fontSize=11;fontColor=#FEFAE0;endArrow=none;endFill=0;fillColor=#BC6C25;" edge="1" parent="1" source="axsoGHkXVx0biH-m-Ovt-3" target="axsoGHkXVx0biH-m-Ovt-57">
          <mxGeometry relative="1" as="geometry" />
        </mxCell>
        <mxCell id="axsoGHkXVx0biH-m-Ovt-62" style="edgeStyle=none;shape=connector;rounded=0;orthogonalLoop=1;jettySize=auto;html=1;labelBackgroundColor=default;strokeColor=#DDA15E;align=center;verticalAlign=middle;fontFamily=Helvetica;fontSize=11;fontColor=#FEFAE0;endArrow=none;endFill=0;fillColor=#BC6C25;" edge="1" parent="1" source="axsoGHkXVx0biH-m-Ovt-3" target="axsoGHkXVx0biH-m-Ovt-56">
          <mxGeometry relative="1" as="geometry" />
        </mxCell>
        <mxCell id="axsoGHkXVx0biH-m-Ovt-63" style="edgeStyle=none;shape=connector;rounded=0;orthogonalLoop=1;jettySize=auto;html=1;labelBackgroundColor=default;strokeColor=#DDA15E;align=center;verticalAlign=middle;fontFamily=Helvetica;fontSize=11;fontColor=#FEFAE0;endArrow=none;endFill=0;fillColor=#BC6C25;" edge="1" parent="1" source="axsoGHkXVx0biH-m-Ovt-3" target="axsoGHkXVx0biH-m-Ovt-55">
          <mxGeometry relative="1" as="geometry" />
        </mxCell>
        <mxCell id="axsoGHkXVx0biH-m-Ovt-65" style="edgeStyle=none;shape=connector;rounded=0;orthogonalLoop=1;jettySize=auto;html=1;labelBackgroundColor=default;strokeColor=#DDA15E;align=center;verticalAlign=middle;fontFamily=Helvetica;fontSize=11;fontColor=#FEFAE0;endArrow=none;endFill=0;fillColor=#BC6C25;" edge="1" parent="1" source="axsoGHkXVx0biH-m-Ovt-3" target="axsoGHkXVx0biH-m-Ovt-59">
          <mxGeometry relative="1" as="geometry" />
        </mxCell>
        <mxCell id="axsoGHkXVx0biH-m-Ovt-66" style="edgeStyle=none;shape=connector;rounded=0;orthogonalLoop=1;jettySize=auto;html=1;labelBackgroundColor=default;strokeColor=#DDA15E;align=center;verticalAlign=middle;fontFamily=Helvetica;fontSize=11;fontColor=#FEFAE0;endArrow=none;endFill=0;fillColor=#BC6C25;" edge="1" parent="1" source="axsoGHkXVx0biH-m-Ovt-3" target="axsoGHkXVx0biH-m-Ovt-58">
          <mxGeometry relative="1" as="geometry" />
        </mxCell>
        <mxCell id="axsoGHkXVx0biH-m-Ovt-3" value="PINTOR" style="whiteSpace=wrap;html=1;align=center;labelBackgroundColor=none;fillColor=#BC6C25;strokeColor=#DDA15E;fontColor=#FEFAE0;" vertex="1" parent="1">
          <mxGeometry x="600" y="440" width="100" height="40" as="geometry" />
        </mxCell>
        <mxCell id="axsoGHkXVx0biH-m-Ovt-82" style="edgeStyle=none;shape=connector;rounded=0;orthogonalLoop=1;jettySize=auto;html=1;labelBackgroundColor=default;strokeColor=#DDA15E;align=center;verticalAlign=middle;fontFamily=Helvetica;fontSize=11;fontColor=#FEFAE0;endArrow=none;endFill=0;fillColor=#BC6C25;" edge="1" parent="1" source="axsoGHkXVx0biH-m-Ovt-4" target="axsoGHkXVx0biH-m-Ovt-81">
          <mxGeometry relative="1" as="geometry" />
        </mxCell>
        <mxCell id="axsoGHkXVx0biH-m-Ovt-83" style="edgeStyle=none;shape=connector;rounded=0;orthogonalLoop=1;jettySize=auto;html=1;labelBackgroundColor=default;strokeColor=#DDA15E;align=center;verticalAlign=middle;fontFamily=Helvetica;fontSize=11;fontColor=#FEFAE0;endArrow=none;endFill=0;fillColor=#BC6C25;" edge="1" parent="1" source="axsoGHkXVx0biH-m-Ovt-4" target="axsoGHkXVx0biH-m-Ovt-80">
          <mxGeometry relative="1" as="geometry" />
        </mxCell>
        <mxCell id="axsoGHkXVx0biH-m-Ovt-84" style="edgeStyle=none;shape=connector;rounded=0;orthogonalLoop=1;jettySize=auto;html=1;labelBackgroundColor=default;strokeColor=#DDA15E;align=center;verticalAlign=middle;fontFamily=Helvetica;fontSize=11;fontColor=#FEFAE0;endArrow=none;endFill=0;fillColor=#BC6C25;" edge="1" parent="1" source="axsoGHkXVx0biH-m-Ovt-4" target="axsoGHkXVx0biH-m-Ovt-79">
          <mxGeometry relative="1" as="geometry" />
        </mxCell>
        <mxCell id="axsoGHkXVx0biH-m-Ovt-85" style="edgeStyle=none;shape=connector;rounded=0;orthogonalLoop=1;jettySize=auto;html=1;labelBackgroundColor=default;strokeColor=#DDA15E;align=center;verticalAlign=middle;fontFamily=Helvetica;fontSize=11;fontColor=#FEFAE0;endArrow=none;endFill=0;fillColor=#BC6C25;" edge="1" parent="1" source="axsoGHkXVx0biH-m-Ovt-4" target="axsoGHkXVx0biH-m-Ovt-78">
          <mxGeometry relative="1" as="geometry" />
        </mxCell>
        <mxCell id="axsoGHkXVx0biH-m-Ovt-86" style="edgeStyle=none;shape=connector;rounded=0;orthogonalLoop=1;jettySize=auto;html=1;labelBackgroundColor=default;strokeColor=#DDA15E;align=center;verticalAlign=middle;fontFamily=Helvetica;fontSize=11;fontColor=#FEFAE0;endArrow=none;endFill=0;fillColor=#BC6C25;" edge="1" parent="1" source="axsoGHkXVx0biH-m-Ovt-4" target="axsoGHkXVx0biH-m-Ovt-77">
          <mxGeometry relative="1" as="geometry" />
        </mxCell>
        <mxCell id="axsoGHkXVx0biH-m-Ovt-87" style="edgeStyle=none;shape=connector;rounded=0;orthogonalLoop=1;jettySize=auto;html=1;labelBackgroundColor=default;strokeColor=#DDA15E;align=center;verticalAlign=middle;fontFamily=Helvetica;fontSize=11;fontColor=#FEFAE0;endArrow=none;endFill=0;fillColor=#BC6C25;" edge="1" parent="1" source="axsoGHkXVx0biH-m-Ovt-4" target="axsoGHkXVx0biH-m-Ovt-76">
          <mxGeometry relative="1" as="geometry" />
        </mxCell>
        <mxCell id="axsoGHkXVx0biH-m-Ovt-4" value="MECENAS" style="whiteSpace=wrap;html=1;align=center;labelBackgroundColor=none;fillColor=#BC6C25;strokeColor=#DDA15E;fontColor=#FEFAE0;" vertex="1" parent="1">
          <mxGeometry x="600" y="720" width="100" height="40" as="geometry" />
        </mxCell>
        <mxCell id="axsoGHkXVx0biH-m-Ovt-16" style="edgeStyle=none;shape=connector;rounded=0;orthogonalLoop=1;jettySize=auto;html=1;labelBackgroundColor=none;strokeColor=#DDA15E;align=center;verticalAlign=middle;fontFamily=Helvetica;fontSize=11;fontColor=default;endArrow=none;endFill=0;" edge="1" parent="1" source="axsoGHkXVx0biH-m-Ovt-5" target="axsoGHkXVx0biH-m-Ovt-6">
          <mxGeometry relative="1" as="geometry" />
        </mxCell>
        <mxCell id="axsoGHkXVx0biH-m-Ovt-91" value="(1,N)" style="edgeLabel;html=1;align=center;verticalAlign=middle;resizable=0;points=[];fontSize=11;fontFamily=Helvetica;fontColor=#FEFAE0;" vertex="1" connectable="0" parent="axsoGHkXVx0biH-m-Ovt-16">
          <mxGeometry x="0.2" y="1" relative="1" as="geometry">
            <mxPoint as="offset" />
          </mxGeometry>
        </mxCell>
        <mxCell id="axsoGHkXVx0biH-m-Ovt-43" style="edgeStyle=none;shape=connector;rounded=0;orthogonalLoop=1;jettySize=auto;html=1;labelBackgroundColor=default;strokeColor=#DDA15E;align=center;verticalAlign=middle;fontFamily=Helvetica;fontSize=11;fontColor=#FEFAE0;endArrow=none;endFill=0;fillColor=#BC6C25;" edge="1" parent="1" source="axsoGHkXVx0biH-m-Ovt-5" target="axsoGHkXVx0biH-m-Ovt-42">
          <mxGeometry relative="1" as="geometry" />
        </mxCell>
        <mxCell id="axsoGHkXVx0biH-m-Ovt-44" style="edgeStyle=none;shape=connector;rounded=0;orthogonalLoop=1;jettySize=auto;html=1;labelBackgroundColor=default;strokeColor=#DDA15E;align=center;verticalAlign=middle;fontFamily=Helvetica;fontSize=11;fontColor=#FEFAE0;endArrow=none;endFill=0;fillColor=#BC6C25;" edge="1" parent="1" source="axsoGHkXVx0biH-m-Ovt-5" target="axsoGHkXVx0biH-m-Ovt-38">
          <mxGeometry relative="1" as="geometry" />
        </mxCell>
        <mxCell id="axsoGHkXVx0biH-m-Ovt-48" style="edgeStyle=none;shape=connector;rounded=0;orthogonalLoop=1;jettySize=auto;html=1;labelBackgroundColor=default;strokeColor=#DDA15E;align=center;verticalAlign=middle;fontFamily=Helvetica;fontSize=11;fontColor=#FEFAE0;endArrow=none;endFill=0;fillColor=#BC6C25;" edge="1" parent="1" source="axsoGHkXVx0biH-m-Ovt-5" target="axsoGHkXVx0biH-m-Ovt-37">
          <mxGeometry relative="1" as="geometry" />
        </mxCell>
        <mxCell id="axsoGHkXVx0biH-m-Ovt-49" style="edgeStyle=none;shape=connector;rounded=0;orthogonalLoop=1;jettySize=auto;html=1;labelBackgroundColor=default;strokeColor=#DDA15E;align=center;verticalAlign=middle;fontFamily=Helvetica;fontSize=11;fontColor=#FEFAE0;endArrow=none;endFill=0;fillColor=#BC6C25;" edge="1" parent="1" source="axsoGHkXVx0biH-m-Ovt-5" target="axsoGHkXVx0biH-m-Ovt-36">
          <mxGeometry relative="1" as="geometry" />
        </mxCell>
        <mxCell id="axsoGHkXVx0biH-m-Ovt-50" style="edgeStyle=none;shape=connector;rounded=0;orthogonalLoop=1;jettySize=auto;html=1;labelBackgroundColor=default;strokeColor=#DDA15E;align=center;verticalAlign=middle;fontFamily=Helvetica;fontSize=11;fontColor=#FEFAE0;endArrow=none;endFill=0;fillColor=#BC6C25;" edge="1" parent="1" source="axsoGHkXVx0biH-m-Ovt-5" target="axsoGHkXVx0biH-m-Ovt-35">
          <mxGeometry relative="1" as="geometry" />
        </mxCell>
        <mxCell id="axsoGHkXVx0biH-m-Ovt-5" value="CUADRO" style="shape=ext;margin=3;double=1;whiteSpace=wrap;html=1;align=center;labelBackgroundColor=none;fillColor=#BC6C25;strokeColor=#DDA15E;fontColor=#FEFAE0;" vertex="1" parent="1">
          <mxGeometry x="40" y="440" width="100" height="40" as="geometry" />
        </mxCell>
        <mxCell id="axsoGHkXVx0biH-m-Ovt-17" style="edgeStyle=none;shape=connector;rounded=0;orthogonalLoop=1;jettySize=auto;html=1;labelBackgroundColor=none;strokeColor=#DDA15E;align=center;verticalAlign=middle;fontFamily=Helvetica;fontSize=11;fontColor=default;endArrow=none;endFill=0;" edge="1" parent="1" source="axsoGHkXVx0biH-m-Ovt-6" target="axsoGHkXVx0biH-m-Ovt-1">
          <mxGeometry relative="1" as="geometry" />
        </mxCell>
        <mxCell id="axsoGHkXVx0biH-m-Ovt-89" value="(0,1)" style="edgeLabel;html=1;align=center;verticalAlign=middle;resizable=0;points=[];fontSize=11;fontFamily=Helvetica;fontColor=#FEFAE0;" vertex="1" connectable="0" parent="axsoGHkXVx0biH-m-Ovt-17">
          <mxGeometry x="-0.3273" y="-4" relative="1" as="geometry">
            <mxPoint as="offset" />
          </mxGeometry>
        </mxCell>
        <mxCell id="axsoGHkXVx0biH-m-Ovt-6" value="Tiene" style="shape=rhombus;perimeter=rhombusPerimeter;whiteSpace=wrap;html=1;align=center;labelBackgroundColor=none;fillColor=#BC6C25;strokeColor=#DDA15E;fontColor=#FEFAE0;" vertex="1" parent="1">
          <mxGeometry x="30" y="270" width="120" height="60" as="geometry" />
        </mxCell>
        <mxCell id="axsoGHkXVx0biH-m-Ovt-15" style="edgeStyle=none;shape=connector;rounded=0;orthogonalLoop=1;jettySize=auto;html=1;labelBackgroundColor=none;strokeColor=#DDA15E;align=center;verticalAlign=middle;fontFamily=Helvetica;fontSize=11;fontColor=default;endArrow=none;endFill=0;" edge="1" parent="1" source="axsoGHkXVx0biH-m-Ovt-7" target="axsoGHkXVx0biH-m-Ovt-5">
          <mxGeometry relative="1" as="geometry" />
        </mxCell>
        <mxCell id="axsoGHkXVx0biH-m-Ovt-92" value="(1,N)" style="edgeLabel;html=1;align=center;verticalAlign=middle;resizable=0;points=[];fontSize=11;fontFamily=Helvetica;fontColor=#FEFAE0;" vertex="1" connectable="0" parent="axsoGHkXVx0biH-m-Ovt-15">
          <mxGeometry x="0.0706" y="-3" relative="1" as="geometry">
            <mxPoint as="offset" />
          </mxGeometry>
        </mxCell>
        <mxCell id="axsoGHkXVx0biH-m-Ovt-7" value="Pinta" style="shape=rhombus;perimeter=rhombusPerimeter;whiteSpace=wrap;html=1;align=center;labelBackgroundColor=none;fillColor=#BC6C25;strokeColor=#DDA15E;fontColor=#FEFAE0;" vertex="1" parent="1">
          <mxGeometry x="310" y="430" width="120" height="60" as="geometry" />
        </mxCell>
        <mxCell id="axsoGHkXVx0biH-m-Ovt-11" style="edgeStyle=none;shape=connector;rounded=0;orthogonalLoop=1;jettySize=auto;html=1;labelBackgroundColor=none;strokeColor=#DDA15E;align=center;verticalAlign=middle;fontFamily=Helvetica;fontSize=11;fontColor=default;endArrow=none;endFill=0;" edge="1" parent="1" source="axsoGHkXVx0biH-m-Ovt-8" target="axsoGHkXVx0biH-m-Ovt-3">
          <mxGeometry relative="1" as="geometry" />
        </mxCell>
        <mxCell id="axsoGHkXVx0biH-m-Ovt-94" value="(1,N)" style="edgeLabel;html=1;align=center;verticalAlign=middle;resizable=0;points=[];fontSize=11;fontFamily=Helvetica;fontColor=#FEFAE0;" vertex="1" connectable="0" parent="axsoGHkXVx0biH-m-Ovt-11">
          <mxGeometry x="-0.2333" y="-3" relative="1" as="geometry">
            <mxPoint as="offset" />
          </mxGeometry>
        </mxCell>
        <mxCell id="axsoGHkXVx0biH-m-Ovt-13" style="edgeStyle=none;shape=connector;rounded=0;orthogonalLoop=1;jettySize=auto;html=1;labelBackgroundColor=none;strokeColor=#DDA15E;align=center;verticalAlign=middle;fontFamily=Helvetica;fontSize=11;fontColor=default;endArrow=none;endFill=0;" edge="1" parent="1" source="axsoGHkXVx0biH-m-Ovt-8" target="axsoGHkXVx0biH-m-Ovt-2">
          <mxGeometry relative="1" as="geometry" />
        </mxCell>
        <mxCell id="axsoGHkXVx0biH-m-Ovt-90" value="(0,1)" style="edgeLabel;html=1;align=center;verticalAlign=middle;resizable=0;points=[];fontSize=11;fontFamily=Helvetica;fontColor=#FEFAE0;" vertex="1" connectable="0" parent="axsoGHkXVx0biH-m-Ovt-13">
          <mxGeometry x="-0.06" y="2" relative="1" as="geometry">
            <mxPoint as="offset" />
          </mxGeometry>
        </mxCell>
        <mxCell id="axsoGHkXVx0biH-m-Ovt-8" value="Pertenece" style="shape=rhombus;perimeter=rhombusPerimeter;whiteSpace=wrap;html=1;align=center;labelBackgroundColor=none;fillColor=#BC6C25;strokeColor=#DDA15E;fontColor=#FEFAE0;" vertex="1" parent="1">
          <mxGeometry x="590" y="260" width="120" height="60" as="geometry" />
        </mxCell>
        <mxCell id="axsoGHkXVx0biH-m-Ovt-14" style="edgeStyle=none;shape=connector;rounded=0;orthogonalLoop=1;jettySize=auto;html=1;labelBackgroundColor=none;strokeColor=#DDA15E;align=center;verticalAlign=middle;fontFamily=Helvetica;fontSize=11;fontColor=default;endArrow=none;endFill=0;" edge="1" parent="1" source="axsoGHkXVx0biH-m-Ovt-9" target="axsoGHkXVx0biH-m-Ovt-4">
          <mxGeometry relative="1" as="geometry" />
        </mxCell>
        <mxCell id="axsoGHkXVx0biH-m-Ovt-96" value="(0,N)" style="edgeLabel;html=1;align=center;verticalAlign=middle;resizable=0;points=[];fontSize=11;fontFamily=Helvetica;fontColor=#FEFAE0;" vertex="1" connectable="0" parent="axsoGHkXVx0biH-m-Ovt-14">
          <mxGeometry x="-0.2545" y="3" relative="1" as="geometry">
            <mxPoint as="offset" />
          </mxGeometry>
        </mxCell>
        <mxCell id="axsoGHkXVx0biH-m-Ovt-99" style="edgeStyle=none;shape=connector;rounded=0;orthogonalLoop=1;jettySize=auto;html=1;labelBackgroundColor=default;strokeColor=#DDA15E;align=center;verticalAlign=middle;fontFamily=Helvetica;fontSize=11;fontColor=#FEFAE0;endArrow=none;endFill=0;fillColor=#BC6C25;" edge="1" parent="1" source="axsoGHkXVx0biH-m-Ovt-9" target="axsoGHkXVx0biH-m-Ovt-98">
          <mxGeometry relative="1" as="geometry" />
        </mxCell>
        <mxCell id="axsoGHkXVx0biH-m-Ovt-9" value="Protege" style="shape=rhombus;perimeter=rhombusPerimeter;whiteSpace=wrap;html=1;align=center;labelBackgroundColor=none;fillColor=#BC6C25;strokeColor=#DDA15E;fontColor=#FEFAE0;" vertex="1" parent="1">
          <mxGeometry x="590" y="550" width="120" height="60" as="geometry" />
        </mxCell>
        <mxCell id="axsoGHkXVx0biH-m-Ovt-18" style="rounded=0;orthogonalLoop=1;jettySize=auto;html=1;strokeColor=#DDA15E;fontColor=#FEFAE0;fillColor=#BC6C25;endArrow=none;endFill=0;" edge="1" parent="1" source="axsoGHkXVx0biH-m-Ovt-21" target="axsoGHkXVx0biH-m-Ovt-22">
          <mxGeometry relative="1" as="geometry" />
        </mxCell>
        <mxCell id="axsoGHkXVx0biH-m-Ovt-19" style="rounded=0;orthogonalLoop=1;jettySize=auto;html=1;strokeColor=#DDA15E;fontColor=#FEFAE0;fillColor=#BC6C25;endArrow=none;endFill=0;" edge="1" parent="1" source="axsoGHkXVx0biH-m-Ovt-21" target="axsoGHkXVx0biH-m-Ovt-23">
          <mxGeometry relative="1" as="geometry" />
        </mxCell>
        <mxCell id="axsoGHkXVx0biH-m-Ovt-20" style="edgeStyle=none;shape=connector;rounded=0;orthogonalLoop=1;jettySize=auto;html=1;labelBackgroundColor=default;strokeColor=#DDA15E;align=center;verticalAlign=middle;fontFamily=Helvetica;fontSize=11;fontColor=#FEFAE0;endArrow=none;endFill=0;fillColor=#BC6C25;" edge="1" parent="1" source="axsoGHkXVx0biH-m-Ovt-21" target="axsoGHkXVx0biH-m-Ovt-24">
          <mxGeometry relative="1" as="geometry" />
        </mxCell>
        <mxCell id="axsoGHkXVx0biH-m-Ovt-21" value="Direccion" style="ellipse;whiteSpace=wrap;html=1;align=center;strokeColor=#DDA15E;fontColor=#FEFAE0;fillColor=#BC6C25;" vertex="1" parent="1">
          <mxGeometry x="40" y="10" width="100" height="40" as="geometry" />
        </mxCell>
        <mxCell id="axsoGHkXVx0biH-m-Ovt-22" value="Calle" style="ellipse;whiteSpace=wrap;html=1;align=center;strokeColor=#DDA15E;fontColor=#FEFAE0;fillColor=#BC6C25;" vertex="1" parent="1">
          <mxGeometry x="-10" y="-80" width="100" height="40" as="geometry" />
        </mxCell>
        <mxCell id="axsoGHkXVx0biH-m-Ovt-23" value="Numero" style="ellipse;whiteSpace=wrap;html=1;align=center;strokeColor=#DDA15E;fontColor=#FEFAE0;fillColor=#BC6C25;" vertex="1" parent="1">
          <mxGeometry x="130" y="-80" width="100" height="40" as="geometry" />
        </mxCell>
        <mxCell id="axsoGHkXVx0biH-m-Ovt-24" value="Localidad" style="ellipse;whiteSpace=wrap;html=1;align=center;strokeColor=#DDA15E;fontColor=#FEFAE0;fillColor=#BC6C25;" vertex="1" parent="1">
          <mxGeometry x="180" y="-20" width="100" height="40" as="geometry" />
        </mxCell>
        <mxCell id="axsoGHkXVx0biH-m-Ovt-26" value="Telefono" style="ellipse;shape=doubleEllipse;margin=3;whiteSpace=wrap;html=1;align=center;strokeColor=#DDA15E;fontFamily=Helvetica;fontSize=11;fontColor=#FEFAE0;fillColor=#BC6C25;" vertex="1" parent="1">
          <mxGeometry x="-90" y="70" width="100" height="40" as="geometry" />
        </mxCell>
        <mxCell id="axsoGHkXVx0biH-m-Ovt-27" value="Metros_Cuadrados" style="ellipse;whiteSpace=wrap;html=1;align=center;strokeColor=#DDA15E;fontFamily=Helvetica;fontSize=11;fontColor=#FEFAE0;fillColor=#BC6C25;" vertex="1" parent="1">
          <mxGeometry x="-150" y="140" width="100" height="40" as="geometry" />
        </mxCell>
        <mxCell id="axsoGHkXVx0biH-m-Ovt-28" value="Nombre" style="ellipse;whiteSpace=wrap;html=1;align=center;fontStyle=4;strokeColor=#DDA15E;fontFamily=Helvetica;fontSize=11;fontColor=#FEFAE0;fillColor=#BC6C25;" vertex="1" parent="1">
          <mxGeometry x="200" y="70" width="100" height="40" as="geometry" />
        </mxCell>
        <mxCell id="axsoGHkXVx0biH-m-Ovt-29" value="Ciudad" style="ellipse;whiteSpace=wrap;html=1;align=center;strokeColor=#DDA15E;fontFamily=Helvetica;fontSize=11;fontColor=#FEFAE0;fillColor=#BC6C25;" vertex="1" parent="1">
          <mxGeometry x="200" y="140" width="100" height="40" as="geometry" />
        </mxCell>
        <mxCell id="axsoGHkXVx0biH-m-Ovt-32" style="edgeStyle=none;shape=connector;rounded=0;orthogonalLoop=1;jettySize=auto;html=1;entryX=0.77;entryY=0.875;entryDx=0;entryDy=0;entryPerimeter=0;labelBackgroundColor=default;strokeColor=#DDA15E;align=center;verticalAlign=middle;fontFamily=Helvetica;fontSize=11;fontColor=#FEFAE0;endArrow=none;endFill=0;fillColor=#BC6C25;" edge="1" parent="1" source="axsoGHkXVx0biH-m-Ovt-1" target="axsoGHkXVx0biH-m-Ovt-26">
          <mxGeometry relative="1" as="geometry" />
        </mxCell>
        <mxCell id="axsoGHkXVx0biH-m-Ovt-34" value="Peso" style="ellipse;whiteSpace=wrap;html=1;align=center;strokeColor=#DDA15E;fontFamily=Helvetica;fontSize=11;fontColor=#FEFAE0;fillColor=#BC6C25;" vertex="1" parent="1">
          <mxGeometry x="-70" y="370" width="100" height="40" as="geometry" />
        </mxCell>
        <mxCell id="axsoGHkXVx0biH-m-Ovt-35" value="Tecnica" style="ellipse;whiteSpace=wrap;html=1;align=center;strokeColor=#DDA15E;fontFamily=Helvetica;fontSize=11;fontColor=#FEFAE0;fillColor=#BC6C25;" vertex="1" parent="1">
          <mxGeometry x="-140" y="420" width="100" height="40" as="geometry" />
        </mxCell>
        <mxCell id="axsoGHkXVx0biH-m-Ovt-36" value="Nombre" style="ellipse;whiteSpace=wrap;html=1;align=center;strokeColor=#DDA15E;fontFamily=Helvetica;fontSize=11;fontColor=#FEFAE0;fillColor=#BC6C25;" vertex="1" parent="1">
          <mxGeometry x="-120" y="490" width="100" height="40" as="geometry" />
        </mxCell>
        <mxCell id="axsoGHkXVx0biH-m-Ovt-37" value="Fecha" style="ellipse;whiteSpace=wrap;html=1;align=center;strokeColor=#DDA15E;fontFamily=Helvetica;fontSize=11;fontColor=#FEFAE0;fillColor=#BC6C25;" vertex="1" parent="1">
          <mxGeometry x="-90" y="545" width="100" height="40" as="geometry" />
        </mxCell>
        <mxCell id="axsoGHkXVx0biH-m-Ovt-45" style="edgeStyle=none;shape=connector;rounded=0;orthogonalLoop=1;jettySize=auto;html=1;labelBackgroundColor=default;strokeColor=#DDA15E;align=center;verticalAlign=middle;fontFamily=Helvetica;fontSize=11;fontColor=#FEFAE0;endArrow=none;endFill=0;fillColor=#BC6C25;" edge="1" parent="1" source="axsoGHkXVx0biH-m-Ovt-38" target="axsoGHkXVx0biH-m-Ovt-41">
          <mxGeometry relative="1" as="geometry" />
        </mxCell>
        <mxCell id="axsoGHkXVx0biH-m-Ovt-46" style="edgeStyle=none;shape=connector;rounded=0;orthogonalLoop=1;jettySize=auto;html=1;labelBackgroundColor=default;strokeColor=#DDA15E;align=center;verticalAlign=middle;fontFamily=Helvetica;fontSize=11;fontColor=#FEFAE0;endArrow=none;endFill=0;fillColor=#BC6C25;" edge="1" parent="1" source="axsoGHkXVx0biH-m-Ovt-38" target="axsoGHkXVx0biH-m-Ovt-40">
          <mxGeometry relative="1" as="geometry" />
        </mxCell>
        <mxCell id="axsoGHkXVx0biH-m-Ovt-47" style="edgeStyle=none;shape=connector;rounded=0;orthogonalLoop=1;jettySize=auto;html=1;labelBackgroundColor=default;strokeColor=#DDA15E;align=center;verticalAlign=middle;fontFamily=Helvetica;fontSize=11;fontColor=#FEFAE0;endArrow=none;endFill=0;fillColor=#BC6C25;" edge="1" parent="1" source="axsoGHkXVx0biH-m-Ovt-38" target="axsoGHkXVx0biH-m-Ovt-39">
          <mxGeometry relative="1" as="geometry" />
        </mxCell>
        <mxCell id="axsoGHkXVx0biH-m-Ovt-38" value="Dimensiones" style="ellipse;whiteSpace=wrap;html=1;align=center;strokeColor=#DDA15E;fontFamily=Helvetica;fontSize=11;fontColor=#FEFAE0;fillColor=#BC6C25;" vertex="1" parent="1">
          <mxGeometry x="40" y="550" width="100" height="40" as="geometry" />
        </mxCell>
        <mxCell id="axsoGHkXVx0biH-m-Ovt-39" value="Ancho" style="ellipse;whiteSpace=wrap;html=1;align=center;strokeColor=#DDA15E;fontFamily=Helvetica;fontSize=11;fontColor=#FEFAE0;fillColor=#BC6C25;" vertex="1" parent="1">
          <mxGeometry x="-60" y="640" width="100" height="40" as="geometry" />
        </mxCell>
        <mxCell id="axsoGHkXVx0biH-m-Ovt-40" value="Profundidad" style="ellipse;whiteSpace=wrap;html=1;align=center;strokeColor=#DDA15E;fontFamily=Helvetica;fontSize=11;fontColor=#FEFAE0;fillColor=#BC6C25;" vertex="1" parent="1">
          <mxGeometry x="30" y="680" width="100" height="40" as="geometry" />
        </mxCell>
        <mxCell id="axsoGHkXVx0biH-m-Ovt-41" value="Alto" style="ellipse;whiteSpace=wrap;html=1;align=center;strokeColor=#DDA15E;fontFamily=Helvetica;fontSize=11;fontColor=#FEFAE0;fillColor=#BC6C25;" vertex="1" parent="1">
          <mxGeometry x="110" y="640" width="100" height="40" as="geometry" />
        </mxCell>
        <mxCell id="axsoGHkXVx0biH-m-Ovt-42" value="Codigo" style="ellipse;whiteSpace=wrap;html=1;align=center;fontStyle=4;strokeColor=#DDA15E;fontFamily=Helvetica;fontSize=11;fontColor=#FEFAE0;fillColor=#BC6C25;" vertex="1" parent="1">
          <mxGeometry x="160" y="500" width="100" height="40" as="geometry" />
        </mxCell>
        <mxCell id="axsoGHkXVx0biH-m-Ovt-51" style="edgeStyle=none;shape=connector;rounded=0;orthogonalLoop=1;jettySize=auto;html=1;entryX=0.62;entryY=1;entryDx=0;entryDy=0;entryPerimeter=0;labelBackgroundColor=default;strokeColor=#DDA15E;align=center;verticalAlign=middle;fontFamily=Helvetica;fontSize=11;fontColor=#FEFAE0;endArrow=none;endFill=0;fillColor=#BC6C25;" edge="1" parent="1" source="axsoGHkXVx0biH-m-Ovt-5" target="axsoGHkXVx0biH-m-Ovt-34">
          <mxGeometry relative="1" as="geometry" />
        </mxCell>
        <mxCell id="axsoGHkXVx0biH-m-Ovt-52" value="Es maestro" style="shape=rhombus;perimeter=rhombusPerimeter;whiteSpace=wrap;html=1;align=center;strokeColor=#DDA15E;fontFamily=Helvetica;fontSize=11;fontColor=#FEFAE0;fillColor=#BC6C25;" vertex="1" parent="1">
          <mxGeometry x="880" y="380" width="120" height="60" as="geometry" />
        </mxCell>
        <mxCell id="axsoGHkXVx0biH-m-Ovt-55" value="Fecha_Muerte" style="ellipse;whiteSpace=wrap;html=1;align=center;strokeColor=#DDA15E;fontFamily=Helvetica;fontSize=11;fontColor=#FEFAE0;fillColor=#BC6C25;" vertex="1" parent="1">
          <mxGeometry x="520" y="320" width="100" height="40" as="geometry" />
        </mxCell>
        <mxCell id="axsoGHkXVx0biH-m-Ovt-56" value="Pais" style="ellipse;whiteSpace=wrap;html=1;align=center;strokeColor=#DDA15E;fontFamily=Helvetica;fontSize=11;fontColor=#FEFAE0;fillColor=#BC6C25;" vertex="1" parent="1">
          <mxGeometry x="490" y="360" width="100" height="40" as="geometry" />
        </mxCell>
        <mxCell id="axsoGHkXVx0biH-m-Ovt-57" value="ID_Pintor" style="ellipse;whiteSpace=wrap;html=1;align=center;fontStyle=4;strokeColor=#DDA15E;fontFamily=Helvetica;fontSize=11;fontColor=#FEFAE0;fillColor=#BC6C25;" vertex="1" parent="1">
          <mxGeometry x="480" y="410" width="100" height="40" as="geometry" />
        </mxCell>
        <mxCell id="axsoGHkXVx0biH-m-Ovt-58" value="Nombre" style="ellipse;whiteSpace=wrap;html=1;align=center;strokeColor=#DDA15E;fontFamily=Helvetica;fontSize=11;fontColor=#FEFAE0;fillColor=#BC6C25;" vertex="1" parent="1">
          <mxGeometry x="490" y="490" width="100" height="40" as="geometry" />
        </mxCell>
        <mxCell id="axsoGHkXVx0biH-m-Ovt-59" value="Ciudad" style="ellipse;whiteSpace=wrap;html=1;align=center;strokeColor=#DDA15E;fontFamily=Helvetica;fontSize=11;fontColor=#FEFAE0;fillColor=#BC6C25;" vertex="1" parent="1">
          <mxGeometry x="740" y="490" width="100" height="40" as="geometry" />
        </mxCell>
        <mxCell id="axsoGHkXVx0biH-m-Ovt-60" value="Fecha_Nac" style="ellipse;whiteSpace=wrap;html=1;align=center;strokeColor=#DDA15E;fontFamily=Helvetica;fontSize=11;fontColor=#FEFAE0;fillColor=#BC6C25;" vertex="1" parent="1">
          <mxGeometry x="710" y="330" width="100" height="40" as="geometry" />
        </mxCell>
        <mxCell id="axsoGHkXVx0biH-m-Ovt-64" style="edgeStyle=none;shape=connector;rounded=0;orthogonalLoop=1;jettySize=auto;html=1;entryX=0.26;entryY=0.9;entryDx=0;entryDy=0;entryPerimeter=0;labelBackgroundColor=default;strokeColor=#DDA15E;align=center;verticalAlign=middle;fontFamily=Helvetica;fontSize=11;fontColor=#FEFAE0;endArrow=none;endFill=0;fillColor=#BC6C25;" edge="1" parent="1" source="axsoGHkXVx0biH-m-Ovt-3" target="axsoGHkXVx0biH-m-Ovt-60">
          <mxGeometry relative="1" as="geometry" />
        </mxCell>
        <mxCell id="axsoGHkXVx0biH-m-Ovt-67" value="Nombre" style="ellipse;whiteSpace=wrap;html=1;align=center;fontStyle=4;strokeColor=#DDA15E;fontFamily=Helvetica;fontSize=11;fontColor=#FEFAE0;fillColor=#BC6C25;" vertex="1" parent="1">
          <mxGeometry x="500" y="40" width="100" height="40" as="geometry" />
        </mxCell>
        <mxCell id="axsoGHkXVx0biH-m-Ovt-68" value="Pais" style="ellipse;whiteSpace=wrap;html=1;align=center;strokeColor=#DDA15E;fontFamily=Helvetica;fontSize=11;fontColor=#FEFAE0;fillColor=#BC6C25;" vertex="1" parent="1">
          <mxGeometry x="590" width="100" height="40" as="geometry" />
        </mxCell>
        <mxCell id="axsoGHkXVx0biH-m-Ovt-69" value="Fecha" style="ellipse;whiteSpace=wrap;html=1;align=center;strokeColor=#DDA15E;fontFamily=Helvetica;fontSize=11;fontColor=#FEFAE0;fillColor=#BC6C25;" vertex="1" parent="1">
          <mxGeometry x="690" y="40" width="100" height="40" as="geometry" />
        </mxCell>
        <mxCell id="axsoGHkXVx0biH-m-Ovt-76" value="Nombre" style="ellipse;whiteSpace=wrap;html=1;align=center;strokeColor=#DDA15E;fontFamily=Helvetica;fontSize=11;fontColor=#FEFAE0;fillColor=#BC6C25;" vertex="1" parent="1">
          <mxGeometry x="770" y="720" width="100" height="40" as="geometry" />
        </mxCell>
        <mxCell id="axsoGHkXVx0biH-m-Ovt-77" value="ID" style="ellipse;whiteSpace=wrap;html=1;align=center;fontStyle=4;strokeColor=#DDA15E;fontFamily=Helvetica;fontSize=11;fontColor=#FEFAE0;fillColor=#BC6C25;" vertex="1" parent="1">
          <mxGeometry x="740" y="650" width="100" height="40" as="geometry" />
        </mxCell>
        <mxCell id="axsoGHkXVx0biH-m-Ovt-78" value="Ciudad" style="ellipse;whiteSpace=wrap;html=1;align=center;strokeColor=#DDA15E;fontFamily=Helvetica;fontSize=11;fontColor=#FEFAE0;fillColor=#BC6C25;" vertex="1" parent="1">
          <mxGeometry x="727" y="810" width="100" height="40" as="geometry" />
        </mxCell>
        <mxCell id="axsoGHkXVx0biH-m-Ovt-79" value="Pais" style="ellipse;whiteSpace=wrap;html=1;align=center;strokeColor=#DDA15E;fontFamily=Helvetica;fontSize=11;fontColor=#FEFAE0;fillColor=#BC6C25;" vertex="1" parent="1">
          <mxGeometry x="600" y="830" width="100" height="40" as="geometry" />
        </mxCell>
        <mxCell id="axsoGHkXVx0biH-m-Ovt-80" value="Fecha_Nac" style="ellipse;whiteSpace=wrap;html=1;align=center;strokeColor=#DDA15E;fontFamily=Helvetica;fontSize=11;fontColor=#FEFAE0;fillColor=#BC6C25;" vertex="1" parent="1">
          <mxGeometry x="480" y="810" width="100" height="40" as="geometry" />
        </mxCell>
        <mxCell id="axsoGHkXVx0biH-m-Ovt-81" value="Fecha_Muerte" style="ellipse;whiteSpace=wrap;html=1;align=center;strokeColor=#DDA15E;fontFamily=Helvetica;fontSize=11;fontColor=#FEFAE0;fillColor=#BC6C25;" vertex="1" parent="1">
          <mxGeometry x="450" y="730" width="100" height="40" as="geometry" />
        </mxCell>
        <mxCell id="axsoGHkXVx0biH-m-Ovt-97" value="&lt;font style=&quot;font-size: 14px;&quot;&gt;&lt;b&gt;N:M&lt;/b&gt;&lt;/font&gt;" style="text;strokeColor=none;fillColor=none;spacingLeft=4;spacingRight=4;overflow=hidden;rotatable=0;points=[[0,0.5],[1,0.5]];portConstraint=eastwest;fontSize=11;whiteSpace=wrap;html=1;fontFamily=Helvetica;fontColor=#FEFAE0;" vertex="1" parent="1">
          <mxGeometry x="540" y="570" width="40" height="30" as="geometry" />
        </mxCell>
        <mxCell id="axsoGHkXVx0biH-m-Ovt-98" value="Relacion" style="ellipse;whiteSpace=wrap;html=1;align=center;strokeColor=#DDA15E;fontFamily=Helvetica;fontSize=11;fontColor=#FEFAE0;fillColor=#BC6C25;" vertex="1" parent="1">
          <mxGeometry x="750" y="560" width="100" height="40" as="geometry" />
        </mxCell>
        <mxCell id="axsoGHkXVx0biH-m-Ovt-100" value="&lt;font style=&quot;font-size: 14px;&quot;&gt;&lt;b&gt;N:1&lt;/b&gt;&lt;/font&gt;" style="text;strokeColor=none;fillColor=none;spacingLeft=4;spacingRight=4;overflow=hidden;rotatable=0;points=[[0,0.5],[1,0.5]];portConstraint=eastwest;fontSize=11;whiteSpace=wrap;html=1;fontFamily=Helvetica;fontColor=#FEFAE0;" vertex="1" parent="1">
          <mxGeometry x="350" y="395" width="40" height="30" as="geometry" />
        </mxCell>
        <mxCell id="axsoGHkXVx0biH-m-Ovt-101" value="&lt;font style=&quot;font-size: 14px;&quot;&gt;&lt;b&gt;1:N&lt;/b&gt;&lt;/font&gt;" style="text;strokeColor=none;fillColor=none;spacingLeft=4;spacingRight=4;overflow=hidden;rotatable=0;points=[[0,0.5],[1,0.5]];portConstraint=eastwest;fontSize=11;whiteSpace=wrap;html=1;fontFamily=Helvetica;fontColor=#FEFAE0;" vertex="1" parent="1">
          <mxGeometry x="160" y="285" width="40" height="30" as="geometry" />
        </mxCell>
        <mxCell id="axsoGHkXVx0biH-m-Ovt-102" value="&lt;font style=&quot;font-size: 14px;&quot;&gt;&lt;b&gt;1:N&lt;/b&gt;&lt;/font&gt;" style="text;strokeColor=none;fillColor=none;spacingLeft=4;spacingRight=4;overflow=hidden;rotatable=0;points=[[0,0.5],[1,0.5]];portConstraint=eastwest;fontSize=11;whiteSpace=wrap;html=1;fontFamily=Helvetica;fontColor=#FEFAE0;" vertex="1" parent="1">
          <mxGeometry x="720" y="290" width="40" height="30" as="geometry" />
        </mxCell>
      </root>
    </mxGraphModel>
  </diagram>
</mxfile>
